<svg xmlns="http://www.w3.org/2000/svg" viewBox="0 0 512 512" width="1024" height="1024">
  <path d="M244 75.66c-16.54 1.62-33.08 5.2-45.53 9.88-10.92 4.1-29.07 13.89-39.35 21.22-8.87 6.34-28.12 23.57-28.12 25.19 0 0.4 1.82 1.57 4.04 2.57l4.04 1.82 4.71-4.53c20.07-19.3 42.48-32.66 67.3-40.15 17.39-5.23 24.17-6.14 45.41-6.09 15.78 0.05 20.78 0.44 29.5 2.3 21.42 4.59 39.73 12.35 57.85 24.53 9.4 6.31 25.15 19.88 25.15 21.65 0 0.48-0.92 1.37-2.03 1.97-1.76 0.94-2.87 0.33-8.25-4.57-30.23-27.5-69.86-42.07-109.22-40.13-40.2 1.97-72.64 16.63-102.04 46.1-31.86 31.95-47.57 70.09-47.8 116.08-0.11 23.65 3.44 42.9 11.5 62.35 5.14 12.39 5.37 13.46 3.3 15.18-1.48 1.23-1.91 1.13-3.48-0.81-2.2-2.71-2.64-2.73-6.76-0.22l-3.27 2 1.67 3.23 1.67 3.22-3.83 3.03c-2.1 1.66-5.11 4.14-6.69 5.52l-2.86 2.5 5.64 0.27c3.63 0.18 6.77-0.28 8.8-1.3 3-1.49 3.24-1.46 4.9 0.6 0.96 1.18 1.75 2.45 1.75 2.8 0 0.37-4.48 4.03-9.95 8.15-5.48 4.11-9.98 7.82-10 8.23-0.03 0.41 2.8 0.75 6.26 0.75 5.96 0 6.67-0.26 12.63-4.7l6.32-4.7 1.87 2.31c1.03 1.27 1.86 2.6 1.85 2.95-0.01 0.35-6.54 5.56-14.5 11.58C98.5 382.46 92 387.74 92 388.2c0 0.45 2.77 0.81 6.16 0.81h6.16l11.34-8.64L127 371.7l8.87 8.55c41.92 40.42 98.58 57.41 153.93 46.17 11.8-2.4 29.77-8.7 41.3-14.48 33.18-16.65 59.4-42.13 76.4-74.23l5.67-10.72h-5.38-5.4l-2.27 4.75c-9.9 20.6-33.25 46.7-54.16 60.55-28.62 18.96-57.6 27.87-90.46 27.8-31.58-0.06-63.53-9.94-89.65-27.7-9.62-6.54-25.93-20.3-28.72-24.22-1.9-2.66-1.89-2.7 0.33-4.36 2.19-1.65 2.37-1.54 8.64 4.83 22.3 22.67 54.22 38.66 87.67 43.92 13.82 2.17 39.36 1.5 52.73-1.38 55.9-12.06 100.6-52.17 117.8-105.69 13.43-41.78 10.15-86.17-9.32-125.97-4.53-9.26-4.77-10.1-3.28-11.75 0.89-0.98 2.24-1.78 3-1.78 2.02 0 8.04-4.31 7.68-5.5-0.17-0.55 2.62-3.25 6.18-6l6.49-5-6.54-0.3c-4.64-0.2-7.17 0.15-8.72 1.23-1.96 1.38-2.36 1.37-3.98-0.1-1-0.9-1.81-2.22-1.81-2.93 0-0.72 4.79-5.03 10.64-9.6l10.65-8.3-6.7-0.3-6.7-0.3-6.6 5.2c-5 3.91-6.99 4.95-8.13 4.23-1.79-1.13-3.8-4.08-3.13-4.58 1.7-1.28 29.66-23.28 30.42-23.93 0.52-0.45-2.22-0.82-6.09-0.82h-7.04l-11.87 9.4-11.87 9.39-6.54-6.04c-18.63-17.2-40.44-30.3-62.92-37.76-21.57-7.16-44.97-10.2-64.12-8.33m-4 25.8c-0.82 0.2-4.88 0.9-9 1.56-36.97 5.92-73.74 30.55-96.1 64.39-16.25 24.61-24.31 49.86-25.56 80.09-0.7 17 0.5 30.12 4.08 44.56 2.25 9.11 10.19 30.94 11.24 30.94 0.4 0 12.22-8.94 32.09-24.28 0.97-0.75 1.25 0.27 1.25 4.44v5.41l-13.48 10.34c-7.42 5.69-13.92 10.86-14.45 11.51-0.66 0.79-0.4 2.04 0.75 3.8l1.72 2.63 12.98-9.92c7.14-5.45 13.26-9.92 13.6-9.92 1-0.01 2.87 8.37 2 8.96-6.46 4.39-23.12 17.8-23.12 18.63 0 0.6 0.9 1.9 1.98 2.88 1.93 1.75 2.2 1.63 10.25-4.53 4.55-3.48 9.57-7.4 11.15-8.69l2.88-2.35 1.87 3.07c1.03 1.69 1.85 3.62 1.82 4.3-0.02 0.67-4.52 4.56-10 8.65-5.47 4.09-9.95 8-9.95 8.68 0 1.71 13.4 13.63 23.33 20.75 9.26 6.63 28.51 16.36 39.67 20.04 15.48 5.1 27.22 6.9 45 6.9 13.04 0 18.6-0.44 26.5-2.13 30.88-6.58 54.88-19.45 76.62-41.1 17.54-17.47 28.53-35.43 36.28-59.27 5.65-17.4 7.02-26.85 6.98-48.3-0.03-20.46-1.44-30.04-7.01-47.77-2.68-8.5-11.42-28.02-12.98-28.99-0.75-0.46-29.02 21.26-66.26 50.94-5.16 4.11-9.71 7.1-10.12 6.64-0.4-0.45-1.23-2.3-1.83-4.1l-1.1-3.27 14.83-11.72c8.16-6.45 24.79-19.57 36.96-29.15 12.17-9.59 22.13-17.75 22.13-18.14 0-0.4-0.83-1.75-1.85-3l-1.85-2.3-35.13 27.68C318.85 205.55 302.81 218 302.52 218c-0.28 0-0.5-2.36-0.5-5.25l0.03-5.25L335 181.63l32.96-25.88-2.05-2.87-2.04-2.88-7.33 5.75-30 23.6c-12.46 9.83-22.86 17.67-23.09 17.44-0.23-0.24 0.5-3.32 1.63-6.86l2.06-6.44 24.88-19.5c13.68-10.72 24.87-19.94 24.87-20.49-0.02-1.49-12.6-12.03-21.56-18.05-15.1-10.17-33.44-18.01-51.33-21.96-6.83-1.51-39.76-3.02-44-2.02m2.33 21.55c6.84 7.61 9.18 13.1 9.13 21.48-0.03 5.57-0.58 8.02-2.67 12-3.71 7.07-11.33 15.2-23.65 25.23-29.92 24.36-35.9 30.68-43.1 45.6-5 10.32-7 18.85-7.03 29.76-0.04 24.34 13.3 47.09 33.4 56.94 12.45 6.1 18.83 7.45 35.09 7.42 12.48-0.03 14.87-0.32 22-2.7 4.4-1.48 10.44-4.22 13.41-6.1l5.41-3.41-5.32-1.15c-8.03-1.72-13.4-4.45-18.95-9.64-7.22-6.75-10.18-13.4-10.8-24.22-0.99-17.32 3.3-27.43 22.37-52.87 6.9-9.19 14.08-19.78 15.97-23.53 11.4-22.66 7.22-47.32-10.95-64.56-10.46-9.92-22.2-15.19-33.98-15.25l-4.84-0.02 4.5 5.02m131.43 19.06c-2.3 1.34-2.21 3.19 0.25 5.42 1.91 1.73 2.09 1.73 3.95 0.04 1.8-1.63 1.84-1.94 0.39-4.15-1.75-2.67-2.1-2.76-4.59-1.31m9.4 12.6l-2.3 1.86 2.19 2.78c2.08 2.65 2.28 2.7 4.07 1.08 2.33-2.11 2.34-2.62 0.11-5.38-1.75-2.15-1.83-2.16-4.08-0.34m-98 68.87c-7.02 7.96-12.81 16.56-16.86 25.04-3.4 7.13-3.78 8.7-3.76 15.91 0.02 6.83 0.44 8.8 2.86 13.44 2.9 5.55 11.88 15.1 23.8 25.33 11.45 9.83 15.05 21.56 11.4 37.13-6.14 26.18-29.81 43.54-59.49 43.63-11 0.04-10.56 1.13 1.22 3.01 18.11 2.9 36.74-0.4 52.66-9.35 26.03-14.62 44.37-50.6 40.23-78.94-2.14-14.69-4.85-18.9-24.68-38.25-19.69-19.22-21.52-22.04-22.46-34.45l-0.56-7.44-4.36 4.94m-117.5 58.21c-0.35 0.57-1.05 5.06-1.56 9.98-3.14 30.34 11.38 56.9 38.6 70.6 38.67 19.46 79.75 3.99 85.36-32.15 1.65-10.65 1.08-11.21-5.72-5.67-3.13 2.55-7.9 5.76-10.6 7.12-12.93 6.55-33.58 8.31-49.78 4.24-26.57-6.67-43.14-21.89-53.32-48.96-1.28-3.41-2.62-5.73-2.97-5.16m-49.06 57.13c-1.75 1.94-1.76 2.2-0.19 4.6 1.38 2.1 2 2.36 3.63 1.5 2.44-1.31 2.5-3.12 0.2-5.96l-1.78-2.19-1.86 2.06m8.67 12.78l-2.23 1.55 2.1 2.94c1.99 2.8 2.18 2.86 3.98 1.23 2.33-2.1 2.34-2.65 0.14-5.23-1.62-1.89-1.92-1.93-3.99-0.5" fill="#FFFFFF" fill-rule="evenodd"/>
</svg>